<svg width="12" height="12" viewBox="0 0 12 12" fill="none" xmlns="http://www.w3.org/2000/svg">
<path d="M6 12C7.18669 12 8.34673 11.6481 9.33342 10.9888C10.3201 10.3295 11.0892 9.39246 11.5433 8.2961C11.9974 7.19975 12.1162 5.99335 11.8847 4.82946C11.6532 3.66558 11.0818 2.59648 10.2426 1.75736C9.40353 0.918247 8.33443 0.346802 7.17054 0.115291C6.00666 -0.11622 4.80026 0.00259972 3.7039 0.456726C2.60754 0.910851 1.67047 1.67989 1.01118 2.66658C0.351894 3.65328 0 4.81331 0 6C0.00158843 7.59081 0.63424 9.11602 1.75911 10.2409C2.88399 11.3658 4.40919 11.9984 6 12ZM6 2C6.79113 2 7.56448 2.2346 8.22228 2.67412C8.88008 3.11365 9.39277 3.73836 9.69552 4.46927C9.99827 5.20017 10.0775 6.00444 9.92314 6.78036C9.7688 7.55629 9.38784 8.26902 8.82843 8.82843C8.26902 9.38784 7.55629 9.7688 6.78036 9.92314C6.00444 10.0775 5.20017 9.99827 4.46927 9.69552C3.73836 9.39277 3.11365 8.88008 2.67412 8.22228C2.2346 7.56449 2 6.79113 2 6C2 4.93914 2.42143 3.92172 3.17157 3.17158C3.92172 2.42143 4.93913 2 6 2Z" fill="white"/>
</svg>
