<svg width="29" height="32" viewBox="0 0 29 32" fill="none" xmlns="http://www.w3.org/2000/svg">
<path d="M20.8802 9.28079C20.8802 7.43488 20.1469 5.66458 18.8417 4.35932C17.5364 3.05407 15.7661 2.32079 13.9202 2.32079C12.0743 2.32079 10.304 3.05407 8.99873 4.35932C7.69348 5.66458 6.9602 7.43488 6.9602 9.28079C6.9602 17.4008 3.4802 19.7208 3.4802 19.7208H24.3602C24.3602 19.7208 20.8802 17.4008 20.8802 9.28079Z" stroke="white" stroke-width="2" stroke-linecap="round" stroke-linejoin="round"/>
<path d="M15.9268 24.3604C15.7229 24.712 15.4302 25.0038 15.078 25.2066C14.7258 25.4095 14.3265 25.5163 13.92 25.5163C13.5136 25.5163 13.1143 25.4095 12.7621 25.2066C12.4099 25.0038 12.1172 24.712 11.9132 24.3604" stroke="white" stroke-width="2" stroke-linecap="round" stroke-linejoin="round"/>
</svg>
